# xmcd
#
# Track frame offsets:
# 150
# 11970
# 23475
# 37200
# 49971
# 63760
# 76550
# 89953
# 100723
# 115494
# 125604
# 139109
# 148788
# 158522
# 170037
# 182230
# 194532
# 206348
# 217073
# 229385
# 246734
# 261093
# 295117
# 307880
# 319706
#
# Disc length: 4458 seconds
#
#
# Revision: 0
# Processed by: cddbd v1.5.1PL2 Copyright (c) Steve Scherf et al.
# Submitted via: FreeRIP 2.944 
#
DISCID=7a116819
DTITLE=B.B. King - King Of The Blues
DYEAR=1992
DGENRE=Blues
TTITLE0=Miss Martha King
TTITLE1=She's Dynamite
TTITLE2=Three O'Clock Blues
TTITLE3=Please Love Me
TTITLE4=You Upset Me Baby
TTITLE5=Every Day I Have The Blues
TTITLE6=Rock Me Baby
TTITLE7=Recession Blues
TTITLE8=Don't Get Around Much Anymore
TTITLE9=I'm Gonna Sit In 'Til You Give In
TTITLE10=Blues At Midnight
TTITLE11=Sneakin' Around
TTITLE12=My Baby's Comin' Home
TTITLE13=Slowly Losing My Mind
TTITLE14=How Blue Can You Get?
TTITLE15=Rockin' Awhile
TTITLE16=Help The Poor
TTITLE17=Stop Leading Me On
TTITLE18=Never Trust A Woman
TTITLE19=Sweet Little Angel
TTITLE20=All Over Again
TTITLE21=Sloppy Drunk
TTITLE22=Don't AnswerThe Door, Pts. 1 And 2
TTITLE23=I Done Got Wise
TTITLE24=Think It Over
EXTD=
EXTT0=
EXTT1=
EXTT2=
EXTT3=
EXTT4=
EXTT5=
EXTT6=
EXTT7=
EXTT8=
EXTT9=
EXTT10=
EXTT11=
EXTT12=
EXTT13=
EXTT14=
EXTT15=
EXTT16=
EXTT17=
EXTT18=
EXTT19=
EXTT20=
EXTT21=
EXTT22=
EXTT23=
EXTT24=
PLAYORDER=
